<?xml version="1.0"?>
<svg xmlns="http://www.w3.org/2000/svg" xmlns:xlink="http://www.w3.org/1999/xlink" xmlns:svgjs="http://svgjs.com/svgjs" version="1.1" width="512" height="512" x="0" y="0" viewBox="0 0 152 152" style="enable-background:new 0 0 512 512" xml:space="preserve"><g><g xmlns="http://www.w3.org/2000/svg" id="Icon"><path d="m97.2 76.7 43.8 27.7v-56.6z" fill="#ffffff" data-original="#000000"/><path d="m11 47.8v56.6l43.8-27.7z" fill="#ffffff" data-original="#000000"/><path d="m132.9 31.3h-113.8c-4 0-7.3 3-7.9 6.9l64.8 42.7 64.8-42.7c-.6-3.9-4-6.9-7.9-6.9z" fill="#ffffff" data-original="#000000"/><path d="m89.7 81.6-11.5 7.6c-.7.4-1.4.7-2.2.7s-1.6-.2-2.2-.7l-11.5-7.6-51 32.3c.6 3.9 3.9 6.8 7.9 6.9h113.8c4 0 7.3-2.9 7.9-6.9z" fill="#ffffff" data-original="#000000"/></g></g></svg>
